<?xml version="1.0" encoding="UTF-8" standalone="no"?>
<!-- Created with Inkscape (http://www.inkscape.org/) -->

<svg
   version="1.1"
   id="svg1"
   width="161.82603"
   height="55.333336"
   viewBox="0 0 161.82603 55.333335"
   sodipodi:docname="pixelcut-export 2.png"
   xmlns:inkscape="http://www.inkscape.org/namespaces/inkscape"
   xmlns:sodipodi="http://sodipodi.sourceforge.net/DTD/sodipodi-0.dtd"
   xmlns="http://www.w3.org/2000/svg"
   xmlns:svg="http://www.w3.org/2000/svg">
  <defs
     id="defs1" />
  <sodipodi:namedview
     id="namedview1"
     pagecolor="#ffffff"
     bordercolor="#000000"
     borderopacity="0.25"
     inkscape:showpageshadow="2"
     inkscape:pageopacity="0.0"
     inkscape:pagecheckerboard="0"
     inkscape:deskcolor="#d1d1d1" />
  <g
     inkscape:groupmode="layer"
     inkscape:label="Image"
     id="g1"
     transform="translate(-31.122751,-25.767546)">
    <g
       id="g2">
      <path
         style="fill:#f2efeb"
         d="m 31.289471,80.790732 c 0,-0.170582 0.3375,-0.358082 0.75,-0.416666 0.73819,-0.104841 0.75144,-0.191659 0.84155,-5.514771 l 0.0915,-5.408254 -0.92488,-0.237777 -0.92489,-0.237778 0.83334,-0.237409 c 0.45833,-0.130575 1.75932,-0.252361 2.89109,-0.270636 1.75499,-0.02834 2.20865,0.09374 3.08333,0.829738 1.23274,1.037282 1.37681,2.600612 0.35891,3.894659 -0.79139,1.00609 -0.82769,1.242377 -0.19086,1.242377 0.81159,0 1.85765,1.66931 1.85587,2.96162 -0.002,1.633412 -1.13749,2.98876 -2.83168,3.380691 -1.74068,0.402686 -5.83333,0.412653 -5.83333,0.01421 z m 6.30949,-0.844188 c 1.61899,-0.837213 1.8878,-3.012012 0.53899,-4.360814 -0.65247,-0.652471 -1.15881,-0.818182 -2.5,-0.818182 h -1.68181 v 2.833334 2.833333 h 1.34988 c 0.74244,0 1.77426,-0.219452 2.29294,-0.487671 z m -0.16173,-6.586498 c 0.58818,-0.839739 0.67723,-2.340496 0.19261,-3.246017 -0.33609,-0.627988 -1.96721,-1.346481 -3.05678,-1.346481 -0.54893,0 -0.61692,0.293891 -0.61692,2.666667 v 2.666667 h 1.48109 c 1.15266,0 1.59617,-0.164287 2,-0.740836 z m 13.07644,7.520589 c -0.12114,-0.121136 0.11636,-0.387331 0.52777,-0.591544 0.72297,-0.358859 1.13952,-1.401018 4.10553,-10.271543 0.29117,-0.870833 0.65658,-1.583333 0.812,-1.583333 0.15542,0 1.12814,2.641599 2.1616,5.87022 1.46922,4.589996 2.01884,5.906788 2.5202,6.037897 1.146536,0.299827 0.31746,0.75855 -1.37097,0.75855 -1.65323,0 -2.22129,-0.438731 -0.98625,-0.761701 0.58812,-0.153798 0.62161,-0.295456 0.30473,-1.288878 -0.96884,-3.037233 -0.8838,-2.949421 -2.85626,-2.949421 -1.72843,0 -1.82993,0.04876 -2.25492,1.083333 -0.24475,0.595833 -0.54902,1.570833 -0.67614,2.166667 -0.20247,0.949008 -0.14518,1.083333 0.46202,1.083333 0.38124,0 0.69316,0.15 0.69316,0.333334 0,0.365993 -3.08812,0.467439 -3.44247,0.113086 z m 6.7758,-5.644674 c 0,-0.632142 -1.44229,-4.803902 -1.60469,-4.6415 -0.2468,0.246802 -1.38381,3.863809 -1.3904,4.423087 -0.003,0.272333 0.51469,0.416667 1.49509,0.416667 0.825,0 1.5,-0.08921 1.5,-0.198254 z m 16.848056,5.555419 c -0.1052,-0.170226 0.14844,-0.357726 0.56366,-0.416667 0.74582,-0.105868 0.75605,-0.174691 0.84634,-5.690498 l 0.0914,-5.583334 h -1.67473 c -1.60351,0 -1.67494,0.03898 -1.67983,0.916667 -0.003,0.504167 -0.14474,1.137463 -0.3154,1.407325 -0.26836,0.424339 -0.33842,0.417365 -0.51838,-0.0516 -0.11444,-0.298244 -0.16001,-1.04404 -0.10126,-1.657326 l 0.10682,-1.115066 4.75,-0.09248 c 3.68196,-0.07169 4.74917,0.0033 4.74633,0.333333 -0.01,1.111492 -0.44775,2.925819 -0.70661,2.925819 -0.15935,0 -0.28972,-0.6 -0.28972,-1.333333 v -1.333334 h -1.66667 -1.66667 v 5.49365 5.493649 l 0.83103,0.208576 c 0.45707,0.114716 0.74822,0.342574 0.647,0.50635 -0.24407,0.394904 -3.71834,0.384624 -3.9633,-0.01173 z m 17.33334,0 c -0.10521,-0.170226 0.14844,-0.357726 0.56366,-0.416667 0.74465,-0.105703 0.75619,-0.181085 0.84656,-5.528933 l 0.0916,-5.421769 -0.92495,-0.411565 c -0.80642,-0.358823 -0.39592,-0.423605 3.20332,-0.505518 2.27055,-0.05168 4.19794,-0.02428 4.28309,0.06087 0.0851,0.08515 0.0352,0.802433 -0.11101,1.593953 l -0.26584,1.439128 -0.18392,-1.166666 -0.18392,-1.166667 -2.41667,-0.09794 -2.41667,-0.09794 v 2.68127 2.68127 h 1.32269 c 1.10015,0 1.40636,-0.154225 1.81999,-0.916667 l 0.4973,-0.916666 -0.0199,1.333333 c -0.0109,0.733333 -0.12645,1.708333 -0.25671,2.166667 -0.23127,0.813783 -0.24202,0.807919 -0.45844,-0.25 -0.20581,-1.006082 -0.31729,-1.083334 -1.56328,-1.083334 h -1.34167 v 2.833334 2.833333 h 2.49365 c 2.44943,0 2.49721,-0.01626 2.69451,-0.916667 0.37886,-1.729036 0.61685,-1.932909 0.73731,-0.631612 0.204613,2.210405 0.195943,2.214946 -4.22867,2.214946 -2.19493,0 -4.07686,-0.139276 -4.18207,-0.309502 z m 33.333333,0 c -0.1052,-0.170226 0.14845,-0.357726 0.56367,-0.416667 0.74322,-0.105501 0.75636,-0.188428 0.84666,-5.342124 l 0.0917,-5.23496 -0.92125,-0.48269 -0.92124,-0.482691 1.59806,-0.239645 c 2.26149,-0.339131 4.78077,-0.03114 5.56724,0.680606 1.0998,0.995306 1.481,2.814038 0.88752,4.234437 -0.6065,1.45155 -1.70884,2.235527 -3.44185,2.447808 l -1.28525,0.157435 1.33333,-0.508743 c 0.73333,-0.279809 1.59583,-0.824128 1.91667,-1.209599 0.66663,-0.800936 0.76082,-2.539421 0.20381,-3.761917 -0.40591,-0.890886 -2.10569,-1.865082 -3.25419,-1.865082 -0.68396,0 -0.69962,0.130626 -0.69962,5.833334 v 5.833333 h 1.01967 c 0.5949,0 0.93385,0.138859 0.81366,0.333334 -0.25973,0.420244 -4.06065,0.441218 -4.31861,0.02383 z m 18.48528,0.01505 c 0,-0.161951 0.28122,-0.367999 0.62494,-0.457883 0.47423,-0.124013 1.07844,-1.52011 2.50537,-5.788878 1.93253,-5.781323 2.33354,-6.738243 2.61684,-6.244371 0.0901,0.157073 0.87505,2.685587 1.74434,5.618921 1.77344,5.98428 1.98818,6.5 2.70657,6.5 0.27937,0 0.41524,0.15 0.30194,0.333334 -0.11331,0.183333 -0.94716,0.333333 -1.85301,0.333333 -0.90585,0 -1.64699,-0.15 -1.64699,-0.333333 0,-0.183334 0.31191,-0.333334 0.69315,-0.333334 0.60378,0 0.66348,-0.135095 0.46301,-1.047814 -0.12657,-0.576297 -0.44357,-1.558631 -0.70443,-2.182964 -0.46836,-1.120934 -0.49776,-1.133903 -2.3476,-1.03552 -1.81169,0.09636 -1.88635,0.137999 -2.27023,1.266298 -0.8747,2.570893 -0.89953,3 -0.17359,3 0.37016,0 0.67302,0.15 0.67302,0.333334 0,0.183333 -0.75,0.333333 -1.66667,0.333333 -0.91666,0 -1.66666,-0.132505 -1.66666,-0.294456 z m 6.66666,-5.767014 c 0,-0.796038 -1.09571,-4.271868 -1.34665,-4.271868 -0.23619,0 -1.65335,3.769788 -1.65335,4.398057 0,0.147736 0.675,0.26861 1.5,0.26861 0.93347,0 1.5,-0.149111 1.5,-0.394799 z m 14.5,5.728133 c -0.1133,-0.183334 0.10284,-0.333334 0.48033,-0.333334 0.66505,0 0.68634,-0.169888 0.68634,-5.477537 0,-5.384724 -0.0127,-5.481739 -0.75,-5.725478 l -0.75,-0.24794 0.83333,-0.241296 c 0.45834,-0.132713 1.73334,-0.255687 2.83334,-0.273277 2.49196,-0.03985 3.92975,0.737651 4.4871,2.426456 0.78355,2.374177 -1.4684,5.26359 -4.03748,5.180379 -0.65552,-0.02123 -0.59969,-0.09166 0.34304,-0.432713 3.37755,-1.221901 3.64211,-5.602162 0.39709,-6.574394 -2.37484,-0.711519 -2.38416,-0.688619 -2.28118,5.608444 l 0.0914,5.59069 1.08966,0.104924 c 0.59931,0.05771 1.00296,0.245209 0.89699,0.416667 -0.25894,0.418978 -4.05944,0.399983 -4.31999,-0.02159 z m 21.5,0.09685 c -2.79454,-1.027537 -4.09373,-6.560326 -2.29621,-9.778819 1.18638,-2.124245 2.31506,-2.821675 4.53072,-2.799596 1.68965,0.01684 1.9465,0.123173 2.95461,1.223215 3.62467,3.955197 1.41274,11.656481 -3.32174,11.565363 -0.75206,-0.01447 -1.59238,-0.109043 -1.86738,-0.210159 z m 4.32755,-1.373122 c 3.09862,-3.098612 1.38833,-10.723733 -2.40529,-10.723733 -2.44308,0 -3.9261,2.108762 -3.91494,5.56678 0.0126,3.887345 1.49698,6.099887 4.09249,6.099887 0.96584,0 1.5189,-0.234094 2.22774,-0.942934 z M 110.6228,76.434215 c 0,-0.183333 0.83386,-0.333333 1.85301,-0.333333 1.15046,0 1.7749,0.12638 1.64699,0.333333 -0.1133,0.183333 -0.94715,0.333333 -1.853,0.333333 -0.90585,0 -1.647,-0.15 -1.647,-0.333333 z m -1.83333,-19.812016 c -1.53659,-0.568612 -3.16667,-2.220889 -3.16667,-3.209797 0,-0.871624 0.86114,-2.540991 1.40966,-2.732706 0.30696,-0.107289 0.24003,-0.35479 -0.24299,-0.898445 -0.93826,-1.056057 -0.91196,-3.416557 0.0488,-4.377295 l 0.71544,-0.715443 -0.70988,-1.203169 c -0.89014,-1.508674 -0.94404,-4.399718 -0.1113,-5.969219 0.31656,-0.596616 1.19796,-1.496616 1.95868,-2 1.14557,-0.758044 1.73081,-0.910618 3.40738,-0.888304 1.19302,0.01588 2.46229,0.255412 3.09102,0.583333 1.38086,0.720204 1.54374,0.703927 1.93751,-0.193607 0.22571,-0.514472 0.66925,-0.782803 1.41238,-0.854453 1.01366,-0.09774 1.08333,-0.03738 1.08333,0.93858 0,1.304604 -0.53098,2.332539 -1.20488,2.332539 -0.41411,0 -0.46178,0.211811 -0.24379,1.083334 0.69029,2.75976 -0.40332,5.810863 -2.52606,7.047556 -1.23045,0.716848 -3.99505,0.902588 -5.94194,0.399211 -0.96303,-0.248995 -1.08333,-0.203625 -1.08333,0.408561 0,0.96764 0.28074,1.073601 4.21268,1.590009 1.93683,0.254377 3.93396,0.717165 4.47559,1.037117 1.12992,0.667457 2.16067,2.995946 1.85874,4.198928 -0.28444,1.133287 -1.43742,2.494826 -2.63874,3.116052 -1.46255,0.756317 -6.03737,0.937865 -7.74161,0.307218 z m 6.41667,-2.241905 c 1.18988,-0.36368 1.43993,-1.235165 0.56318,-1.962801 -0.28608,-0.237426 -1.8724,-0.59977 -3.52516,-0.80521 -2.7346,-0.339914 -3.03275,-0.32171 -3.31319,0.202288 -1.3665,2.553328 1.91969,3.89695 6.27517,2.565723 z m -1.44929,-10.461081 c 1.95044,-1.950435 0.99093,-7.485 -1.29764,-7.485 -1.93285,0 -2.83711,1.297089 -2.83516,4.06678 0.002,2.477653 0.91584,3.933221 2.47005,3.933221 0.63126,0 1.3795,-0.231751 1.66275,-0.515001 z m -46.634053,6.460249 c -1.32243,-0.729614 -2.5893,-2.140606 -3.24298,-3.611915 -0.87019,-1.95864 -0.93188,-6.237741 -0.11774,-8.166667 1.62325,-3.845936 5.82294,-5.217881 9.498,-3.102784 l 1.28763,0.741067 1.37088,-0.907205 1.37088,-0.907204 v 5.454989 c 0,5.769381 0.28946,7.378075 1.37883,7.662952 0.50884,0.133065 0.64426,0.401976 0.56237,1.116728 -0.10028,0.87528 -0.23674,0.956288 -1.9412,1.152439 -1.00833,0.116041 -2.2556,0.378541 -2.7717,0.583334 -1.29506,0.513892 -1.28445,0.522822 -1.04299,-0.877649 0.21183,-1.228573 0.20603,-1.237111 -0.33846,-0.498096 -1.15993,1.574323 -4.32688,2.29056 -6.01352,1.360011 z m 4.60525,-2.666363 c 1.35599,-0.722201 1.53985,-1.309025 1.54957,-4.945552 0.008,-2.922156 -0.10053,-3.680229 -0.65622,-4.591642 -1.71166,-2.807386 -4.97033,-1.785023 -5.63403,1.7676 -0.57671,3.086951 0.47075,6.684844 2.22296,7.635579 1.12018,0.607807 1.58199,0.632389 2.51772,0.134015 z m 22.72809,2.501499 c -2.87919,-1.515195 -4.50366,-4.294299 -4.49268,-7.68597 0.009,-2.780216 0.72206,-4.477179 2.58835,-6.159813 2.83853,-2.559194 6.29193,-2.373138 9.321803,0.502222 1.20221,1.1409 2.41586,3.995279 2.41586,5.681847 0,3.060772 -2.0101,6.510788 -4.474873,7.680399 -1.42356,0.67552 -4.05677,0.666338 -5.35846,-0.01869 z m 5.36666,-2.913718 c 1.349773,-1.349764 1.421723,-2.196109 0.453263,-5.33162 -1.393203,-4.510643 -4.979993,-6.448497 -6.498923,-3.511206 -0.98776,1.91013 -0.47953,4.919781 1.27131,7.52842 1.0229,1.524062 2.20906,2.432103 3.19102,2.442826 0.2475,0.0027 0.96,-0.505086 1.58333,-1.12842 z m 46.241173,2.481573 c -2.14809,-1.59938 -2.94116,-3.535845 -2.94116,-7.181573 0,-2.482954 0.13622,-3.276676 0.79038,-4.605328 0.98201,-1.994533 2.69042,-3.178185 4.9783,-3.44915 1.44136,-0.170708 2.00244,-0.05778 3.6026,0.725109 2.023,0.98976 1.83547,1.009535 4.04539,-0.426582 l 0.75,-0.487389 v 6.054253 c 0,6.029699 0.003,6.057386 0.83333,6.826561 0.48271,0.447356 0.83333,1.141915 0.83333,1.65075 0,0.819818 -0.10082,0.878443 -1.5107,0.878443 -0.83089,0 -2.04921,0.225 -2.70738,0.5 -1.577,0.658915 -1.54204,0.675757 -1.38525,-0.667246 l 0.13627,-1.167247 -1.0961,1.062375 c -0.92096,0.892634 -1.40292,1.083242 -3.01646,1.192974 -1.73181,0.117774 -2.05708,0.02881 -3.31255,-0.90595 z m 6.28765,-2.692434 1.01086,-1.010862 -0.12233,-3.574161 c -0.10409,-3.040894 -0.23301,-3.72958 -0.86408,-4.615846 -0.88294,-1.239965 -2.17138,-1.567733 -3.68184,-0.936623 -1.40031,0.585086 -2.07142,2.145088 -2.07142,4.81502 0,4.905191 3.18604,7.865246 5.72881,5.322472 z m 8.60824,1.018261 c -0.73538,-1.462598 -1.33705,-2.80249 -1.33705,-2.977538 0,-0.175048 0.31239,-0.417418 0.6942,-0.5386 0.54922,-0.174317 1.05391,0.162139 2.41666,1.611096 1.49792,1.592671 1.97766,1.887302 3.67993,2.260038 1.66574,0.364739 2.08798,0.355687 2.83333,-0.06074 1.07415,-0.600127 1.31507,-1.96229 0.47499,-2.685633 -0.32951,-0.283723 -2.06338,-1.075727 -3.85305,-1.760009 -3.85831,-1.475236 -5.07939,-2.684347 -5.07939,-5.029605 0,-1.992424 0.67433,-3.009247 2.52309,-3.804563 1.90562,-0.819775 2.75648,-0.854318 4.64357,-0.188514 1.73606,0.612517 1.66667,0.613483 1.66667,-0.02318 0,-0.346906 0.24288,-0.487295 0.72084,-0.416667 0.56495,0.08348 0.88928,0.606948 1.49965,2.420397 0.6031,1.791862 0.68488,2.373517 0.36249,2.578229 -0.71259,0.452477 -1.09989,0.307544 -1.83493,-0.686656 -1.62251,-2.194558 -5.73543,-3.0644 -6.19421,-1.310015 -0.2844,1.087548 0.29517,1.829408 1.85902,2.379589 0.78126,0.274855 2.34415,0.826035 3.47309,1.224844 2.19059,0.773844 3.18715,1.597175 3.75851,3.105162 0.5357,1.413859 0.43283,2.500019 -0.37249,3.932886 -1.26822,2.256496 -4.689,3.262095 -7.62048,2.240175 -0.84875,-0.295875 -1.14556,-0.295875 -1.24419,0 -0.0712,0.213715 -0.49035,0.388573 -0.93136,0.388573 -0.66815,0 -1.02474,-0.443348 -2.13889,-2.659267 z M 31.536601,50.236902 c -0.53245,-0.532453 -0.20283,-1.454208 0.66954,-1.872319 1.6289,-0.780704 1.84655,-2.18508 1.60956,-10.385534 -0.11586,-4.008674 -0.36577,-7.578354 -0.55537,-7.932623 -0.1896,-0.354269 -0.71061,-0.783232 -1.15779,-0.953252 -0.57634,-0.219122 -0.81307,-0.563419 -0.81307,-1.182502 v -0.873375 l 6.08333,0.144162 c 6.84151,0.162129 8.23541,0.487016 10.53516,2.455518 0.84351,0.722008 1.82375,2.09906 2.5722,3.613453 1.10622,2.238275 1.20931,2.690782 1.20931,5.307986 0,5.231153 -1.85746,8.812682 -5.55092,10.703211 -1.94738,0.996781 -2.02152,1.006904 -8.16002,1.114164 -3.40714,0.05953 -6.30601,-0.003 -6.44193,-0.138889 z m 12.10976,-2.719355 c 1.47984,-0.74955 1.9617,-1.220515 2.64311,-2.583333 0.7563,-1.512611 0.83333,-2.053985 0.83333,-5.856902 0,-4.001445 -0.0452,-4.278558 -1.00255,-6.150572 -0.8433,-1.648936 -1.28618,-2.108506 -2.78806,-2.893098 -1.24531,-0.650554 -2.27825,-0.932762 -3.41412,-0.932762 h -1.6286 v 8.895183 c 0,8.674124 0.018,8.914356 0.72477,9.666667 0.97275,1.035444 2.38885,0.991059 4.63212,-0.145183 z m 9.97644,1.916667 c 0,-0.666667 0.16667,-1 0.5,-1 0.275,0 0.8,-0.3 1.16667,-0.666667 0.57865,-0.578647 0.66667,-1.111111 0.66667,-4.03293 0,-3.310484 -0.0166,-3.381743 -1,-4.300404 -0.55,-0.513777 -1,-1.171431 -1,-1.461454 0,-0.302636 0.74564,-0.900663 1.75,-1.40355 0.9625,-0.481929 2.22749,-1.234456 2.81109,-1.672282 0.5836,-0.437826 1.1461,-0.796047 1.25,-0.796047 0.1039,0 0.18891,2.891624 0.18891,6.425831 0,6.85538 0.22427,7.907503 1.685556,7.907503 0.49752,0 0.64777,0.231948 0.64777,1 v 1 h -4.333326 -4.33334 z m 26.579736,0.370233 c -0.2106,-0.805323 0.0822,-1.260605 0.91189,-1.417958 1.30905,-0.248264 1.49829,-1.397185 1.50346,-9.128107 0.004,-6.111664 -0.0821,-7.466685 -0.51399,-8.083334 -0.28539,-0.407459 -0.73539,-0.740835 -1,-0.740835 -0.29275,0 -0.4811,-0.330889 -0.4811,-0.845179 0,-0.684273 0.28571,-0.967645 1.50069,-1.488447 0.82537,-0.353797 2.06019,-1.023467 2.74404,-1.488154 0.68385,-0.464688 1.35854,-0.844887 1.49932,-0.844887 0.14077,0 0.25595,4.657449 0.25595,10.349887 0,8.625373 0.0847,10.513751 0.50856,11.333334 0.30264,0.585236 0.77504,0.983447 1.16667,0.983447 0.50901,0 0.65811,0.226558 0.65811,1 v 1 h -4.29446 c -3.93025,0 -4.30842,-0.05341 -4.45914,-0.629767 z m 40.552573,0.160421 c -0.30937,-0.806213 0.0742,-1.466606 0.92231,-1.588133 1.42204,-0.203756 1.60188,-1.245518 1.60714,-9.309447 0.005,-8.373321 -0.17073,-9.396689 -1.71027,-9.933375 -0.77548,-0.270334 -0.97598,-0.519135 -0.89249,-1.107513 0.10748,-0.757489 0.11847,-0.758854 6.10768,-0.758854 5.54989,0 6.14401,0.05926 7.91974,0.789963 7.29798,3.003078 8.91449,14.241709 2.8666,19.929765 -2.11327,1.987539 -3.12327,2.222409 -10.20171,2.372352 -5.64035,0.11948 -6.43996,0.07179 -6.619,-0.394758 z m 11.36018,-1.902449 c 1.74746,-0.485132 3.66248,-2.438099 4.22327,-4.306956 0.26018,-0.867045 0.43805,-2.976512 0.42628,-5.055332 -0.0185,-3.271295 -0.10171,-3.726762 -1.00197,-5.487087 -1.37654,-2.691613 -3.1199,-3.870168 -5.99577,-4.05329 l -2.17532,-0.138514 0.0988,9.069717 0.0989,9.069717 0.78692,0.63677 c 0.90019,0.728415 1.66366,0.785581 3.53889,0.264975 z m 42.39059,1.881196 c -0.30124,-0.784998 0.0821,-1.42838 0.98617,-1.655295 0.45727,-0.114767 0.96346,-0.580748 1.14255,-1.051783 0.4145,-1.090211 0.42078,-14.497908 0.007,-15.585434 -0.17283,-0.454581 -0.62283,-0.924454 -1,-1.044163 -0.43562,-0.138358 -0.68546,-0.503132 -0.68546,-1.001257 0,-0.643715 0.51253,-1.056254 2.87097,-2.310871 1.57902,-0.839996 2.92902,-1.527266 3,-1.527266 0.071,0 0.12903,2.475 0.12903,5.5 0,3.025 0.1125,5.495834 0.25,5.490741 0.1375,-0.0051 0.67672,-0.44431 1.19826,-0.976038 1.50677,-1.536193 4.80902,-1.743737 6.33262,-0.398001 1.16885,1.032398 1.36897,1.904699 1.55012,6.756524 0.1925,5.156295 0.3691,5.735853 1.92842,6.328704 0.56269,0.213936 0.75649,0.512627 0.68036,1.048609 -0.10388,0.731412 -0.20679,0.749462 -4.27311,0.749462 -4.02885,0 -4.17009,-0.02406 -4.27023,-0.727446 -0.0693,-0.486862 0.15117,-0.861651 0.66667,-1.133235 0.42362,-0.223183 0.88043,-0.570833 1.01512,-0.772554 0.1347,-0.201721 0.2472,-2.354265 0.25,-4.783432 0.005,-3.976134 -0.0614,-4.483162 -0.66156,-5.083333 -0.36667,-0.366667 -0.8069,-0.666667 -0.9783,-0.666667 -0.67427,0 -2.22645,0.746746 -2.93837,1.413642 -0.69198,0.648216 -0.74908,0.988177 -0.73818,4.394463 0.0127,3.97335 0.30534,4.956653 1.67891,5.641452 0.4465,0.222605 0.80927,0.697897 0.80927,1.060288 0,0.615489 -0.27546,0.662658 -4.37739,0.749557 -3.67744,0.07791 -4.40866,0.01128 -4.57287,-0.416667 z M 56.680911,31.329396 c -0.92782,-0.987613 -0.92581,-2.348589 0.005,-3.215531 0.94906,-0.88419 1.65262,-0.85881 2.54571,0.09183 0.99395,1.058012 0.93203,2.35043 -0.15352,3.204323 -1.1208,0.881623 -1.5051,0.868697 -2.39694,-0.08062 z"
         id="path3"
         inkscape:export-filename="path3.png"
         inkscape:export-xdpi="96"
         inkscape:export-ydpi="96" />
    </g>
  </g>
</svg>
