<?xml version="1.0" encoding="UTF-8" standalone="no"?>
<!-- Created with Inkscape (http://www.inkscape.org/) -->

<svg
   version="1.1"
   id="svg1"
   width="64.166672"
   height="87.26474"
   viewBox="0 0 64.166672 87.264741"
   sodipodi:docname="logo.svg"
   xmlns:inkscape="http://www.inkscape.org/namespaces/inkscape"
   xmlns:sodipodi="http://sodipodi.sourceforge.net/DTD/sodipodi-0.dtd"
   xmlns="http://www.w3.org/2000/svg"
   xmlns:svg="http://www.w3.org/2000/svg">
  <defs
     id="defs1" />
  <sodipodi:namedview
     id="namedview1"
     pagecolor="#ffffff"
     bordercolor="#000000"
     borderopacity="0.25"
     inkscape:showpageshadow="2"
     inkscape:pageopacity="0.0"
     inkscape:pagecheckerboard="0"
     inkscape:deskcolor="#d1d1d1" />
  <g
     inkscape:groupmode="layer"
     inkscape:label="Image"
     id="g1"
     transform="translate(-16.95228,-28.77522)">
    <g
       id="g16"
       transform="translate(-84.87422,3.1909574)"
       inkscape:export-filename="g16.png"
       inkscape:export-xdpi="96"
       inkscape:export-ydpi="96"
       style="fill:#ffffff">
      <path
         style="fill:#ffffff"
         d="m 118.77635,111.71663 0.74409,-1.13237 4.58992,-7.66667 4.58993,-7.666662 1.06311,-1.873909 1.0631,-1.873909 v -5.49227 -5.492269 l 2.91667,-0.756471 2.91667,-0.75647 3.75098,-1.015253 3.75099,-1.015253 0.18863,0.188636 0.18864,0.188635 -0.27296,4.76399 -0.27295,4.763989 -4.38942,1.685277 -4.38941,1.685277 -0.67759,0.620219 -0.67759,0.620219 -3.09966,4.324312 -3.09966,4.324312 -4.40564,6.21846 -4.40564,6.21846 -0.40815,0.13605 -0.40814,0.13604 z m -3.75538,-1.29904 -0.26086,-1.5 -1.14636,-6.5 -1.14637,-6.499995 -2.33776,-13.333333 -2.33776,-13.333333 -0.95528,-5.5 -0.95528,-5.5 -1.2105,-7 -1.21051,-6.999999 -0.81689,-4.658245 -0.8169,-4.658244 V 34.38572 33.837 l 1.41667,0.264737 1.41667,0.264737 8.16666,1.869518 8.16667,1.869518 2.66667,0.639219 2.66666,0.63922 4.58089,1.016824 4.58088,1.016823 h 0.45362 0.45362 l 2.3861,-4.416666 2.3861,-4.416667 1.28104,-2.333333 1.28104,-2.333333 0.71378,-1.166667 0.71377,-1.166667 0.001,0.467837 10e-4,0.467836 -0.80392,1.69935 -0.80392,1.69935 -1.34117,3.49948 -1.34117,3.49948 -2.52158,6.624958 -2.52157,6.624957 v 4.585403 4.585402 l -3.25,0.227481 -3.25,0.22748 -6.33333,0.471128 -6.33334,0.471127 -2.75,0.204288 -2.75,0.204288 0.009,0.886744 0.009,0.886744 0.33117,3.333333 0.33116,3.333333 0.83012,9.166666 0.83012,9.166667 0.48906,5.833333 0.48906,5.833333 0.54108,5.537029 0.54109,5.53702 -0.13903,0.62964 -0.13903,0.62964 z m 1.98204,0.5 0.22368,-1 0.28402,-1.16666 0.28401,-1.16667 2.34923,-12.196098 2.34922,-12.196098 v -2.438331 -2.438332 l -0.52077,-6.967312 -0.52077,-6.967312 0.1041,-0.701418 0.10411,-0.701419 0.5,-0.06904 0.5,-0.06904 7.71645,-0.432724 7.71645,-0.432724 2.72808,-13.861738 2.72808,-13.861738 0.79466,-3.166667 0.79466,-3.166666 -0.17979,2.666666 -0.1798,2.666667 -0.49526,5.666666 -0.49526,5.666667 -0.47842,5.833333 -0.47841,5.833333 -0.322,3.333333 -0.322,3.333334 -0.5447,5.833333 -0.54471,5.833333 -0.30037,0.314688 -0.30037,0.314688 -6.88102,1.914349 -6.88102,1.91435 -0.247,0.270962 -0.247,0.270963 -1.24131,4.666666 -1.2413,4.666667 -1.77213,6.166666 -1.77212,6.166673 -0.89395,3.16666 -0.89394,3.16667 -0.51886,1.83333 -0.51886,1.83334 -0.30465,0.33333 -0.30464,0.33333 z m 29.68185,-35.583328 0.22231,-6.75 0.20967,-0.226293 0.20966,-0.226293 5.66667,-0.856897 5.66667,-0.856897 0.75795,-0.122107 0.75796,-0.122107 0.16954,0.274335 0.16955,0.274334 -0.53092,4.597629 -0.53093,4.597629 -0.23876,0.987349 -0.23876,0.987349 -1.65782,0.614778 -1.65781,0.614778 -4.33334,1.476916 -4.33333,1.476916 -0.26531,0.0043 -0.26531,0.0043 z m 5.32654,-11.5 0.15348,-1.583333 0.32201,-4.166667 0.32201,-4.166666 -1.64613,-6.666667 -1.64612,-6.666666 -1.34508,-5.621242 -1.34507,-5.621241 0.0257,-0.378758 0.0257,-0.378759 1.78761,5.166667 1.7876,5.166666 1.36203,3.833334 1.36202,3.833333 1.18899,3.5 1.18899,3.5 0.34318,0.416666 0.34318,0.416667 h 3.17183 3.17183 l -0.22403,2.4722 -0.22402,2.472201 -0.45386,2.381925 -0.45386,2.381925 -0.11809,0.08622 -0.1181,0.08622 -4.33333,0.567218 -4.33334,0.567218 -0.23429,-0.0076 -0.2343,-0.0076 z m 8.70347,-11.102336 -2.27829,-0.26472 -0.4462,-0.171222 -0.4462,-0.171222 0.18742,-3.141359 0.18742,-3.141359 -1.84055,-3.128891 -1.84055,-3.12889 -0.92292,-1.666667 -0.92292,-1.666666 -1.99026,-3.333333 -1.99027,-3.333334 -0.65304,-1.083333 -0.65305,-1.083333 h 0.28604 0.28604 l 0.82448,1.265668 0.82448,1.265668 4.32146,5.912078 4.32145,5.912078 2.84521,0.838975 2.84522,0.838975 1.16666,0.419494 1.16667,0.419494 -0.0645,0.980451 -0.0645,0.980451 -0.38965,3.416667 -0.38964,3.416667 -1.04584,-0.04381 -1.04583,-0.04381 z"
         id="path16" />
    </g>
  </g>
</svg>
